<?xml version="1.0" encoding="utf-8"?>
<!-- Generator: Adobe Illustrator 18.1.1, SVG Export Plug-In . SVG Version: 6.00 Build 0)  -->
<svg version="1.1" id="ball_1_" xmlns="http://www.w3.org/2000/svg" xmlns:xlink="http://www.w3.org/1999/xlink" x="0px" y="0px"
	 width="1500px" height="1030px" viewBox="250 -15 1500 1030" enable-background="new 250 -15 1500 1030" xml:space="preserve">
<g>
	<path fill="#6C7A89" d="M696.6,62.3c41.8,0,79.6,3.6,114.1,11c34.3,7.3,63.6,19.3,88.3,36c24.4,16.7,43.4,38.8,57.1,66.7
		c13.4,27.5,20.1,61.9,20.1,102.6c0,44-10,80.8-29.9,110.1c-20.2,29.4-49.7,53.5-89.2,72.1c53.9,15.4,93.7,42.7,120.2,81.4
		c26.6,38.9,39.5,85.7,39.5,140.4c0,44.3-8.4,82.5-25.4,114.7c-17.1,32.5-40.4,58.9-69.2,79.2c-28.9,20.5-62.2,35.6-99.5,45.3
		c-36.9,9.7-75.1,14.7-114.4,14.7h-424V62.3H696.6z M671.6,415.6c34.1,0,62.3-8.1,84.7-24.6c22.1-16.1,32.8-42.9,32.8-79.5
		c0-20.3-3.6-37.2-10.8-50.1c-7.4-13.1-17.3-23.2-29.6-30.4c-12.4-7.4-26.3-12.6-42.4-15.4c-15.8-3.1-32.5-4.4-49.6-4.4H476.6v204.3
		h195V415.6z M682.3,787.9c19,0,37.1-1.7,54.1-5.5c17.3-3.8,32.5-9.7,45.3-18.6c12.9-8.4,23.5-20.1,31.2-34.9
		c7.8-14.7,11.5-33.7,11.5-56.7c0-45-12.6-77-37.9-96.5c-25.3-19.2-59-28.6-100.4-28.6H476.9v240.8H682.3z"/>
	<path fill="#6C7A89" d="M1291,785c26,25.4,63.6,38.2,112.5,38.2c35,0,65.4-8.9,90.8-26.6c25.1-17.6,40.5-36.5,46.5-56.1H1694
		c-24.6,76.1-62,130.6-112.9,163.3c-50.4,32.8-111.7,49.3-183.4,49.3c-49.8,0-94.7-8.1-135.1-24c-40.3-16.1-74-38.7-102.3-68
		c-27.6-29.5-49-64.5-64.4-105.5c-15.1-40.8-22.7-86-22.7-135c0-47.4,7.8-91.5,23.4-132.5c15.8-41,37.6-76.4,66.3-106.1
		c28.8-29.8,62.9-53.3,102.6-70.6c39.7-17.1,83.6-25.7,132.1-25.7c53.6,0,100.6,10.3,140.7,31.4c40.1,20.6,72.9,48.8,98.8,84
		c25.9,35,44.2,75.1,55.7,120.2c11.3,44.9,15.4,91.8,12.1,141H1248C1248,712.2,1264.9,759.5,1291,785z M1491,452.2
		c-20.6-22.8-55.7-35.3-98.4-35.3c-27.8,0-50.9,4.6-69.2,14.2c-18,9.4-32.7,21.1-44,34.9c-11.2,13.9-18.9,28.8-23.2,44.6
		c-4.5,15.4-7.1,29.4-8,41.7h283.1C1526.9,508.2,1511.6,475.3,1491,452.2z"/>
	<rect x="1212.4" y="120.9" fill="#6C7A89" width="354.6" height="86.3"/>
</g>
</svg>
