<?xml version="1.0" encoding="utf-8"?>
<!-- Generator: Adobe Illustrator 18.1.1, SVG Export Plug-In . SVG Version: 6.00 Build 0)  -->
<svg version="1.1" id="Layer_1" xmlns="http://www.w3.org/2000/svg" xmlns:xlink="http://www.w3.org/1999/xlink" x="0px" y="0px"
	 width="1000px" height="1000px" viewBox="0 0 1000 1000" enable-background="new 0 0 1000 1000" xml:space="preserve">
<path fill="#6C7A89" d="M826,58H170c-62,0-110,50-110,110v656c0,62,50,110,110,110h656c62,0,110-50,110-110V170
	C936,108,888,58,826,58z M498,368c70,0,128,58,128,128s-58,128-128,128s-128-58-128-128C368,426,426,368,498,368z M834,780
	c0,30-28,56-60,56H222c-30-2-62-26-62-56V502c0-30,30-56,62-56h30c6,0,12,2,16,6c4,4,6,10,4,16c-2,10-2,18-2,28
	c0,126,102,226,226,226c126,0,226-102,226-226c0-10,0-18-2-28c0-6,2-12,4-16c4-4,10-6,16-6h34c30,0,60,26,60,56V780L834,780z
	 M834,268L834,268c0,30-24,56-56,56h-52c-30,0-56-24-56-56v-52c0-30,24-56,56-56h54c30,0,56,24,56,56v52H834z"/>
</svg>
