<?xml version="1.0" encoding="utf-8"?>
<!-- Generator: Adobe Illustrator 19.1.0, SVG Export Plug-In . SVG Version: 6.00 Build 0)  -->
<svg version="1.1" id="ball_1_" xmlns="http://www.w3.org/2000/svg" xmlns:xlink="http://www.w3.org/1999/xlink" x="0px" y="0px"
	 width="1000px" height="1000px" viewBox="194 -104 1000 1000" style="enable-background:new 194 -104 1000 1000;"
	 xml:space="preserve">
<style type="text/css">
	.st0{fill:#C4C4C4;}
</style>
<g id="ball">
	<g>
		<path class="st0" d="M694-30.9c-235.2,0-426.9,191.3-426.9,426.9S458.4,822.9,694,822.9c235.2,0,426.9-191.2,426.9-426.9
			S929.2-30.9,694-30.9z M976.4,165.9c50.9,62,81.5,141.2,82.4,226.9c-12-2.3-132.4-26.9-253.7-11.6c-2.8-6-5.1-12.5-7.9-19
			c-7.4-17.6-15.7-35.6-24.1-52.8C907.4,254.3,968.5,176.1,976.4,165.9z M694,31.6c92.6,0,177.3,34.7,241.7,91.7
			c-6.5,9.3-61.6,82.9-191.2,131.5C684.8,145.5,619,55.3,608.9,41.8C636.1,35.4,664.8,31.6,694,31.6z M539.4,66.4
			c9.7,13,74.5,103.2,135.2,210.6c-170.8,45.4-320.8,44.9-337,44.4C361.1,208.5,437.1,114.5,539.4,66.4z M329.6,396.5
			c0-3.7,0-7.4,0-11.1c15.7,0.5,192.6,2.8,374.5-51.9c10.6,20.4,20.4,41.2,29.6,62c-4.6,1.4-9.7,2.8-14.4,4.2
			c-188,60.6-288,226.4-296.3,240.3C365.3,575.2,329.6,490,329.6,396.5z M694,760.8c-84.3,0-162-28.7-223.6-76.9
			c6.5-13.4,80.6-156,286.1-227.8c0.9-0.5,1.4-0.5,2.3-0.9c51.4,132.9,72.2,244.4,77.8,276.4C792.6,750.2,744.5,760.8,694,760.8z
			 M897.7,698.3c-3.7-22.2-23.1-128.7-70.8-259.7c114.4-18.1,214.4,11.6,226.9,15.7C1037.5,555.7,979.6,643.2,897.7,698.3z"/>
	</g>
</g>
</svg>
