<?xml version="1.0" encoding="utf-8"?>
<!-- Generator: Adobe Illustrator 18.1.1, SVG Export Plug-In . SVG Version: 6.00 Build 0)  -->
<svg version="1.1" id="Layer_1" xmlns="http://www.w3.org/2000/svg" xmlns:xlink="http://www.w3.org/1999/xlink" x="0px" y="0px"
	 width="1000px" height="1000px" viewBox="0 0 1000 1000" enable-background="new 0 0 1000 1000" xml:space="preserve">
<g>
	<g>
		<g>
			<g>
				<path fill="#6C7A89" d="M324,896c-110,0-212-32-298-88c16,2,30,2,46,2c92,0,174-32,242-84c-86-2-156-58-182-136c12,2,24,4,36,4
					c18,0,34-2,52-6c-88-18-156-96-156-190v-2c26,16,56,24,88,26c-52-34-86-94-86-162c0-36,10-70,26-98c96,118,240,196,400,204
					c-4-14-6-30-6-44c0-108,88-194,194-194c56,0,106,24,142,62c44-8,86-24,124-48c-14,46-46,84-86,108c40-4,76-16,112-30
					c-26,38-60,74-98,100c0,8,0,16,0,26C876,600,680,896,324,896"/>
			</g>
		</g>
	</g>
</g>
</svg>
