<?xml version="1.0" encoding="utf-8"?>
<!-- Generator: Adobe Illustrator 18.1.1, SVG Export Plug-In . SVG Version: 6.00 Build 0)  -->
<svg version="1.1" id="ball_1_" xmlns="http://www.w3.org/2000/svg" xmlns:xlink="http://www.w3.org/1999/xlink" x="0px" y="0px"
	 width="1000px" height="1000px" viewBox="0 0 1000 1000" enable-background="new 0 0 1000 1000" xml:space="preserve">
<g id="ball">
	<g>
		<path fill="#6C7A89" d="M500,73.1C264.8,73.1,73.1,264.4,73.1,500S264.4,926.9,500,926.9c235.2,0,426.9-191.2,426.9-426.9
			S735.2,73.1,500,73.1z M782.4,269.9c50.9,62,81.5,141.2,82.4,226.9c-12-2.3-132.4-26.9-253.7-11.6c-2.8-6-5.1-12.5-7.9-19
			c-7.4-17.6-15.7-35.6-24.1-52.8C713.4,358.3,774.5,280.1,782.4,269.9z M500,135.6c92.6,0,177.3,34.7,241.7,91.7
			c-6.5,9.3-61.6,82.9-191.2,131.5c-59.7-109.3-125.5-199.5-135.6-213C442.1,139.4,470.8,135.6,500,135.6z M345.4,170.4
			c9.7,13,74.5,103.2,135.2,210.6c-170.8,45.4-320.8,44.9-337,44.4C167.1,312.5,243.1,218.5,345.4,170.4z M135.6,500.5
			c0-3.7,0-7.4,0-11.1c15.7,0.5,192.6,2.8,374.5-51.9c10.6,20.4,20.4,41.2,29.6,62c-4.6,1.4-9.7,2.8-14.4,4.2
			c-188,60.6-288,226.4-296.3,240.3C171.3,679.2,135.6,594,135.6,500.5z M500,864.8c-84.3,0-162-28.7-223.6-76.9
			c6.5-13.4,80.6-156,286.1-227.8c0.9-0.5,1.4-0.5,2.3-0.9c51.4,132.9,72.2,244.4,77.8,276.4C598.6,854.2,550.5,864.8,500,864.8z
			 M703.7,802.3c-3.7-22.2-23.1-128.7-70.8-259.7c114.4-18.1,214.4,11.6,226.9,15.7C843.5,659.7,785.6,747.2,703.7,802.3z"/>
	</g>
</g>
</svg>
