<?xml version="1.0" encoding="utf-8"?>
<!-- Generator: Adobe Illustrator 19.1.0, SVG Export Plug-In . SVG Version: 6.00 Build 0)  -->
<svg version="1.1" id="Layer_1" xmlns="http://www.w3.org/2000/svg" xmlns:xlink="http://www.w3.org/1999/xlink" x="0px" y="0px"
	 width="1000px" height="1000px" viewBox="194 -104 1000 1000" style="enable-background:new 194 -104 1000 1000;"
	 xml:space="preserve">
<style type="text/css">
	.st0{fill:#C4C4C4;}
</style>
<path class="st0" d="M1020-46H364C302-46,254,4,254,64v656c0,62,50,110,110,110h656c62,0,110-50,110-110V66C1130,4,1082-46,1020-46z
	 M692,264c70,0,128,58,128,128s-58,128-128,128s-128-58-128-128C562,322,620,264,692,264z M1028,676c0,30-28,56-60,56H416
	c-30-2-62-26-62-56V398c0-30,30-56,62-56h30c6,0,12,2,16,6s6,10,4,16c-2,10-2,18-2,28c0,126,102,226,226,226c126,0,226-102,226-226
	c0-10,0-18-2-28c0-6,2-12,4-16c4-4,10-6,16-6h34c30,0,60,26,60,56V676L1028,676z M1028,164L1028,164c0,30-24,56-56,56h-52
	c-30,0-56-24-56-56v-52c0-30,24-56,56-56h54c30,0,56,24,56,56v52H1028z"/>
</svg>
