<?xml version="1.0" encoding="utf-8"?>
<!-- Generator: Adobe Illustrator 19.1.0, SVG Export Plug-In . SVG Version: 6.00 Build 0)  -->
<svg version="1.1" id="Layer_1" xmlns="http://www.w3.org/2000/svg" xmlns:xlink="http://www.w3.org/1999/xlink" x="0px" y="0px"
	 width="1000px" height="1000px" viewBox="194 -104 1000 1000" style="enable-background:new 194 -104 1000 1000;"
	 xml:space="preserve">
<style type="text/css">
	.st0{fill:#C4C4C4;}
	.st1{fill:#FFFFFF;}
</style>
<path class="st0" d="M1022-42H366C304-42,256,8,256,68v656c0,62,50,110,110,110h656c62,0,110-50,110-110V70C1132,8,1084-42,1022-42z
	 M694,268c70,0,128,58,128,128s-58,128-128,128s-128-58-128-128C564,326,622,268,694,268z M1030,680c0,30-28,56-60,56H418
	c-30-2-62-26-62-56V402c0-30,30-56,62-56h30c6,0,12,2,16,6s6,10,4,16c-2,10-2,18-2,28c0,126,102,226,226,226c126,0,226-102,226-226
	c0-10,0-18-2-28c0-6,2-12,4-16c4-4,10-6,16-6h34c30,0,60,26,60,56V680L1030,680z M1030,168L1030,168c0,30-24,56-56,56h-52
	c-30,0-56-24-56-56v-52c0-30,24-56,56-56h54c30,0,56,24,56,56v52H1030z"/>
<rect x="312" class="st0" width="760" height="764"/>
<g>
	<path class="st1" d="M612,302.1c41.1,0,78.8,0,117.5,0c0.7,15.7,1.3,29.8,1.8,39.4c30.7-16.4,60.4-40.4,94-48.6
		C902.7,274,992.9,299,999.7,405c6.4,99.6,1.4,199.9,1.4,302c-38.7,0-79.2,0-123.1,0c0-64.2,0.1-127.4-0.1-190.6
		c-0.1-18.9,0.3-38-1.8-56.8c-3.1-28.4-14.3-51.8-46-58c-32.1-6.2-65.5,8.3-78.2,37.9c-7.7,17.9-12.5,38.5-12.9,58
		c-1.5,68.9-0.6,137.9-0.6,209.2c-43.4,0-83.9,0-126.4,0C612,572.3,612,438.2,612,302.1z"/>
	<path class="st1" d="M404.7,302.1c42,0,81.7,0,123.2,0c0,134.9,0,268.2,0,404.4c-39.7,0-80.2,0-123.2,0
		C404.7,573.2,404.7,439,404.7,302.1z"/>
	<path class="st1" d="M465.8,246.9c-41.4,0-76.6-34.9-76.7-76.1s34.8-77.2,75.4-77.9c42-0.7,78.8,36.1,78.5,78.3
		C542.7,212.2,507.3,246.9,465.8,246.9z"/>
</g>
</svg>
