<?xml version="1.0" encoding="utf-8"?>
<!-- Generator: Adobe Illustrator 19.1.0, SVG Export Plug-In . SVG Version: 6.00 Build 0)  -->
<svg version="1.1" id="Layer_1" xmlns="http://www.w3.org/2000/svg" xmlns:xlink="http://www.w3.org/1999/xlink" x="0px" y="0px"
	 width="600px" height="400px" viewBox="-95 413 600 400" style="enable-background:new -95 413 600 400;" xml:space="preserve">
<style type="text/css">
	.st0{fill:none;stroke:#FF4E4E;stroke-width:8;stroke-linejoin:round;stroke-miterlimit:10;}
	.st1{fill:none;stroke:#FF4E4E;stroke-width:5;stroke-linejoin:round;stroke-miterlimit:10;}
	.st2{fill:#FFFFFF;stroke:#FF4E4E;stroke-width:8;stroke-linejoin:round;stroke-miterlimit:10;}
	.st3{fill:#FF4E4E;}
	.st4{fill:none;stroke:#FF4E4E;stroke-width:5;stroke-linecap:round;stroke-linejoin:round;stroke-miterlimit:10;}
	.st5{fill:none;stroke:#FF4E4E;stroke-width:3;stroke-linecap:round;stroke-linejoin:round;stroke-miterlimit:10;}
</style>
<path class="st0" d="M339.6,693.6H26c-4.4,0-8-3.6-8-8V500c0-4.4,3.6-8,8-8h313.6c4.4,0,8,3.6,8,8v185.6
	C347.6,690,344,693.6,339.6,693.6z"/>
<path class="st1" d="M323.6,673.6H42c-4.4,0-8-3.6-8-8v-148c0-4.4,3.6-8,8-8h281.6c4.4,0,8,3.6,8,8v148
	C331.6,670,328,673.6,323.6,673.6z"/>
<rect x="158.8" y="693.6" class="st2" width="48.4" height="28.4"/>
<rect x="134.4" y="722" class="st2" width="96.4" height="22"/>
<circle class="st3" cx="198.8" cy="683.6" r="3.6"/>
<circle class="st3" cx="182.8" cy="683.6" r="3.6"/>
<circle class="st3" cx="166.8" cy="683.6" r="3.6"/>
<line class="st4" x1="77.6" y1="640.4" x2="97.6" y2="640.4"/>
<line class="st4" x1="155.2" y1="640.4" x2="191.2" y2="640.4"/>
<line class="st4" x1="77.6" y1="620.4" x2="121.6" y2="620.4"/>
<line class="st4" x1="77.6" y1="630.5" x2="118.4" y2="630.5"/>
<line class="st4" x1="155.2" y1="620.4" x2="199.2" y2="620.4"/>
<line class="st4" x1="155.2" y1="630.5" x2="200" y2="630.5"/>
<rect x="77.6" y="555.6" class="st4" width="51.2" height="50"/>
<line class="st4" x1="77.6" y1="605.2" x2="128.8" y2="555.6"/>
<line class="st4" x1="77.6" y1="555.6" x2="128.8" y2="605.2"/>
<rect x="155.2" y="555.6" class="st4" width="51.2" height="50"/>
<line class="st4" x1="155.2" y1="605.2" x2="206.4" y2="555.6"/>
<line class="st4" x1="155.2" y1="555.6" x2="206.4" y2="605.2"/>
<line class="st4" x1="233.2" y1="620.4" x2="273.2" y2="620.4"/>
<line class="st4" x1="233.2" y1="630.5" x2="274" y2="630.5"/>
<line class="st4" x1="233.2" y1="640.4" x2="257.2" y2="640.4"/>
<rect x="233.2" y="555.6" class="st4" width="51.2" height="50"/>
<line class="st4" x1="233.2" y1="605.2" x2="284.4" y2="555.6"/>
<line class="st4" x1="233.2" y1="555.6" x2="284.4" y2="605.2"/>
<line class="st4" x1="310.4" y1="527.4" x2="294.4" y2="527.4"/>
<line class="st4" x1="278.4" y1="527.4" x2="262.4" y2="527.4"/>
<line class="st4" x1="246.4" y1="527.4" x2="230.4" y2="527.4"/>
<line class="st4" x1="71.6" y1="527.4" x2="55.6" y2="527.4"/>
<path class="st2" d="M310.4,574.8H404c4.4,0,8,3.6,8,8V736c0,4.4-3.6,8-8,8h-93.6c-4.4,0-8-3.6-8-8V582.8
	C302.4,578.4,306,574.8,310.4,574.8z"/>
<path class="st1" d="M315.5,592.8h83.9V726h-83.9V592.8z"/>
<path class="st2" d="M325.2,744h-46.4c-4.4,0-8-3.6-8-8v-94.8c0-4.4,3.6-8,8-8h46.4c4.4,0,8,3.6,8,8V736
	C333.2,740.4,329.6,744,325.2,744z"/>
<path class="st1" d="M270.8,655.5h62.4V718h-62.4V655.5z"/>
<circle class="st3" cx="302" cy="729.6" r="3.6"/>
<line class="st5" x1="307.3" y1="645.4" x2="297.5" y2="645.4"/>
</svg>
