<?xml version="1.0" encoding="utf-8"?>
<!-- Generator: Adobe Illustrator 18.1.1, SVG Export Plug-In . SVG Version: 6.00 Build 0)  -->
<svg version="1.1" id="Layer_1" xmlns="http://www.w3.org/2000/svg" xmlns:xlink="http://www.w3.org/1999/xlink" x="0px" y="0px"
	 width="600px" height="400px" viewBox="250 -150 600 400" enable-background="new 250 -150 600 400" xml:space="preserve">
<polygon fill="none" stroke="#FF4E4E" stroke-width="8" stroke-linejoin="round" stroke-miterlimit="10" points="454.8,195.4 
	359.6,151 359.6,-95.4 454.8,-50.6 "/>
<polygon fill="none" stroke="#FF4E4E" stroke-width="8" stroke-linejoin="round" stroke-miterlimit="10" points="550,151 
	454.8,195.4 454.8,-50.6 550,-95.4 "/>
<polygon fill="none" stroke="#FF4E4E" stroke-width="8" stroke-linejoin="round" stroke-miterlimit="10" points="645.6,195.4 
	550,151 550,-95.4 645.6,-50.6 "/>
<polygon fill="none" stroke="#FF4E4E" stroke-width="8" stroke-linejoin="round" stroke-miterlimit="10" points="645.6,-51 
	645.6,195.4 740.4,151 740.4,-42.6 690,-71.4 "/>
<polygon fill="none" stroke="#FF4E4E" stroke-width="8" stroke-linejoin="round" stroke-miterlimit="10" points="690,-19.4 
	740.4,-42.6 690,-71.4 "/>
<line fill="none" stroke="#FF4E4E" stroke-width="6" stroke-linecap="round" stroke-linejoin="round" stroke-miterlimit="10" x1="382.4" y1="53" x2="434.4" y2="77"/>
<line fill="none" stroke="#FF4E4E" stroke-width="6" stroke-linecap="round" stroke-linejoin="round" stroke-miterlimit="10" x1="382.4" y1="65.8" x2="434.4" y2="90.2"/>
<line fill="none" stroke="#FF4E4E" stroke-width="6" stroke-linecap="round" stroke-linejoin="round" stroke-miterlimit="10" x1="382.4" y1="79" x2="434.4" y2="103"/>
<line fill="none" stroke="#FF4E4E" stroke-width="6" stroke-linecap="round" stroke-linejoin="round" stroke-miterlimit="10" x1="382.4" y1="91.8" x2="434.4" y2="115.8"/>
<line fill="none" stroke="#FF4E4E" stroke-width="6" stroke-linecap="round" stroke-linejoin="round" stroke-miterlimit="10" x1="382.4" y1="104.6" x2="417.2" y2="121"/>
<line fill="none" stroke="#FF4E4E" stroke-width="6" stroke-linecap="round" stroke-linejoin="round" stroke-miterlimit="10" x1="477.6" y1="76.2" x2="529.2" y2="51.8"/>
<line fill="none" stroke="#FF4E4E" stroke-width="6" stroke-linecap="round" stroke-linejoin="round" stroke-miterlimit="10" x1="477.6" y1="89" x2="529.2" y2="65"/>
<line fill="none" stroke="#FF4E4E" stroke-width="6" stroke-linecap="round" stroke-linejoin="round" stroke-miterlimit="10" x1="477.6" y1="102.2" x2="529.2" y2="77.8"/>
<line fill="none" stroke="#FF4E4E" stroke-width="6" stroke-linecap="round" stroke-linejoin="round" stroke-miterlimit="10" x1="477.6" y1="115" x2="529.2" y2="91"/>
<line fill="none" stroke="#FF4E4E" stroke-width="6" stroke-linecap="round" stroke-linejoin="round" stroke-miterlimit="10" x1="477.6" y1="127.8" x2="512" y2="111.8"/>
<line fill="none" stroke="#FF4E4E" stroke-width="6" stroke-linecap="round" stroke-linejoin="round" stroke-miterlimit="10" x1="477.6" y1="2.6" x2="529.2" y2="-21.4"/>
<line fill="none" stroke="#FF4E4E" stroke-width="6" stroke-linecap="round" stroke-linejoin="round" stroke-miterlimit="10" x1="477.6" y1="15.8" x2="529.2" y2="-8.6"/>
<line fill="none" stroke="#FF4E4E" stroke-width="6" stroke-linecap="round" stroke-linejoin="round" stroke-miterlimit="10" x1="477.6" y1="28.6" x2="529.2" y2="4.6"/>
<line fill="none" stroke="#FF4E4E" stroke-width="6" stroke-linecap="round" stroke-linejoin="round" stroke-miterlimit="10" x1="477.6" y1="41.4" x2="529.2" y2="17.4"/>
<line fill="none" stroke="#FF4E4E" stroke-width="6" stroke-linecap="round" stroke-linejoin="round" stroke-miterlimit="10" x1="477.6" y1="54.6" x2="512" y2="38.6"/>
<polygon fill="none" stroke="#FF4E4E" stroke-width="8" stroke-linecap="round" stroke-linejoin="round" stroke-miterlimit="10" points="
	382.4,-22.6 434.4,1.4 434.4,53.4 382.4,29.4 "/>
<line fill="none" stroke="#FF4E4E" stroke-width="6" stroke-linecap="round" stroke-linejoin="round" stroke-miterlimit="10" x1="572.4" y1="48.2" x2="624.4" y2="72.6"/>
<line fill="none" stroke="#FF4E4E" stroke-width="6" stroke-linecap="round" stroke-linejoin="round" stroke-miterlimit="10" x1="572.4" y1="61.4" x2="624.4" y2="85.4"/>
<line fill="none" stroke="#FF4E4E" stroke-width="6" stroke-linecap="round" stroke-linejoin="round" stroke-miterlimit="10" x1="572.4" y1="74.2" x2="624.4" y2="98.2"/>
<line fill="none" stroke="#FF4E4E" stroke-width="6" stroke-linecap="round" stroke-linejoin="round" stroke-miterlimit="10" x1="572.4" y1="87" x2="624.4" y2="111.4"/>
<line fill="none" stroke="#FF4E4E" stroke-width="6" stroke-linecap="round" stroke-linejoin="round" stroke-miterlimit="10" x1="572.4" y1="100.2" x2="606.8" y2="116.2"/>
<polygon fill="none" stroke="#FF4E4E" stroke-width="8" stroke-linecap="round" stroke-linejoin="round" stroke-miterlimit="10" points="
	572.4,-31.4 624.4,-7.4 624.4,44.6 572.4,20.2 "/>
<polygon fill="none" stroke="#FF4E4E" stroke-width="8" stroke-linecap="round" stroke-linejoin="round" stroke-miterlimit="10" points="
	667.2,67.8 718.8,43.8 718.8,95.4 667.2,119.8 "/>
</svg>
