<?xml version="1.0" encoding="utf-8"?>
<!-- Generator: Adobe Illustrator 19.1.0, SVG Export Plug-In . SVG Version: 6.00 Build 0)  -->
<svg version="1.1" id="Layer_1" xmlns="http://www.w3.org/2000/svg" xmlns:xlink="http://www.w3.org/1999/xlink" x="0px" y="0px"
	 width="600px" height="400px" viewBox="-95 413 600 400" style="enable-background:new -95 413 600 400;" xml:space="preserve">
<style type="text/css">
	.st0{fill:none;stroke:#FF4E4E;stroke-width:8;stroke-linejoin:round;stroke-miterlimit:10;}
	.st1{fill:none;stroke:#FF4E4E;stroke-width:6;stroke-linecap:round;stroke-linejoin:round;stroke-miterlimit:10;}
	.st2{fill:none;stroke:#FF4E4E;stroke-width:8;stroke-linecap:round;stroke-linejoin:round;stroke-miterlimit:10;}
</style>
<g>
	<polygon class="st0" points="109.8,758.4 14.6,714 14.6,467.6 109.8,512.4 	"/>
	<polygon class="st0" points="205,714 109.8,758.4 109.8,512.4 205,467.6 	"/>
	<polygon class="st0" points="300.6,758.4 205,714 205,467.6 300.6,512.4 	"/>
	<polygon class="st0" points="300.6,512 300.6,758.4 395.4,714 395.4,520.4 345,491.6 	"/>
	<polygon class="st0" points="345,543.6 395.4,520.4 345,491.6 	"/>
	<line class="st1" x1="37.4" y1="616" x2="89.4" y2="640"/>
	<line class="st1" x1="37.4" y1="628.8" x2="89.4" y2="653.2"/>
	<line class="st1" x1="37.4" y1="642" x2="89.4" y2="666"/>
	<line class="st1" x1="37.4" y1="654.8" x2="89.4" y2="678.8"/>
	<line class="st1" x1="37.4" y1="667.6" x2="72.2" y2="684"/>
	<line class="st1" x1="132.6" y1="639.2" x2="184.2" y2="614.8"/>
	<line class="st1" x1="132.6" y1="652" x2="184.2" y2="628"/>
	<line class="st1" x1="132.6" y1="665.2" x2="184.2" y2="640.8"/>
	<line class="st1" x1="132.6" y1="678" x2="184.2" y2="654"/>
	<line class="st1" x1="132.6" y1="690.8" x2="167" y2="674.8"/>
	<line class="st1" x1="132.6" y1="565.6" x2="184.2" y2="541.6"/>
	<line class="st1" x1="132.6" y1="578.8" x2="184.2" y2="554.4"/>
	<line class="st1" x1="132.6" y1="591.6" x2="184.2" y2="567.6"/>
	<line class="st1" x1="132.6" y1="604.4" x2="184.2" y2="580.4"/>
	<line class="st1" x1="132.6" y1="617.6" x2="167" y2="601.6"/>
	<polygon class="st2" points="37.4,540.4 89.4,564.4 89.4,616.4 37.4,592.4 	"/>
	<line class="st1" x1="227.4" y1="611.2" x2="279.4" y2="635.6"/>
	<line class="st1" x1="227.4" y1="624.4" x2="279.4" y2="648.4"/>
	<line class="st1" x1="227.4" y1="637.2" x2="279.4" y2="661.2"/>
	<line class="st1" x1="227.4" y1="650" x2="279.4" y2="674.4"/>
	<line class="st1" x1="227.4" y1="663.2" x2="261.8" y2="679.2"/>
	<polygon class="st2" points="227.4,531.6 279.4,555.6 279.4,607.6 227.4,583.2 	"/>
	<polygon class="st2" points="322.2,630.8 373.8,606.8 373.8,658.4 322.2,682.8 	"/>
</g>
</svg>
