<?xml version="1.0" encoding="utf-8"?>
<!-- Generator: Adobe Illustrator 18.1.1, SVG Export Plug-In . SVG Version: 6.00 Build 0)  -->
<svg version="1.1" id="Layer_1" xmlns="http://www.w3.org/2000/svg" xmlns:xlink="http://www.w3.org/1999/xlink" x="0px" y="0px"
	 width="600px" height="400px" viewBox="-211 185 600 400" enable-background="new -211 185 600 400" xml:space="preserve">
<polygon fill="none" stroke="#6C7A89" stroke-width="6" stroke-linejoin="round" stroke-miterlimit="10" points="-7,531 
	-102.2,486.6 -102.2,240.2 -7,285 "/>
<polygon fill="none" stroke="#6C7A89" stroke-width="6" stroke-linejoin="round" stroke-miterlimit="10" points="88.2,486.6 -7,531 
	-7,285 88.2,240.2 "/>
<polygon fill="none" stroke="#6C7A89" stroke-width="6" stroke-linejoin="round" stroke-miterlimit="10" points="183.8,531 
	88.2,486.6 88.2,240.2 183.8,285 "/>
<polygon fill="none" stroke="#6C7A89" stroke-width="6" stroke-linejoin="round" stroke-miterlimit="10" points="183.8,284.6 
	183.8,531 278.6,486.6 278.6,293 228.2,264.2 "/>
<polygon fill="none" stroke="#6C7A89" stroke-width="6" stroke-linejoin="round" stroke-miterlimit="10" points="228.2,316.2 
	278.6,293 228.2,264.2 "/>
<g>
	
		<line fill="none" stroke="#6C7A89" stroke-width="3" stroke-linecap="round" stroke-linejoin="round" stroke-miterlimit="10" x1="-79.4" y1="388.6" x2="-27.4" y2="412.6"/>
	
		<line fill="none" stroke="#6C7A89" stroke-width="3" stroke-linecap="round" stroke-linejoin="round" stroke-miterlimit="10" x1="-79.4" y1="401.4" x2="-27.4" y2="425.8"/>
	
		<line fill="none" stroke="#6C7A89" stroke-width="3" stroke-linecap="round" stroke-linejoin="round" stroke-miterlimit="10" x1="-79.4" y1="414.6" x2="-27.4" y2="438.6"/>
	
		<line fill="none" stroke="#6C7A89" stroke-width="3" stroke-linecap="round" stroke-linejoin="round" stroke-miterlimit="10" x1="-79.4" y1="427.4" x2="-27.4" y2="451.4"/>
	
		<line fill="none" stroke="#6C7A89" stroke-width="3" stroke-linecap="round" stroke-linejoin="round" stroke-miterlimit="10" x1="-79.4" y1="440.2" x2="-44.6" y2="456.6"/>
</g>
<line fill="none" stroke="#6C7A89" stroke-width="3" stroke-linecap="round" stroke-linejoin="round" stroke-miterlimit="10" x1="15.8" y1="411.8" x2="67.4" y2="387.4"/>
<line fill="none" stroke="#6C7A89" stroke-width="3" stroke-linecap="round" stroke-linejoin="round" stroke-miterlimit="10" x1="15.8" y1="424.6" x2="67.4" y2="400.6"/>
<line fill="none" stroke="#6C7A89" stroke-width="3" stroke-linecap="round" stroke-linejoin="round" stroke-miterlimit="10" x1="15.8" y1="437.8" x2="67.4" y2="413.4"/>
<line fill="none" stroke="#6C7A89" stroke-width="3" stroke-linecap="round" stroke-linejoin="round" stroke-miterlimit="10" x1="15.8" y1="450.6" x2="67.4" y2="426.6"/>
<line fill="none" stroke="#6C7A89" stroke-width="3" stroke-linecap="round" stroke-linejoin="round" stroke-miterlimit="10" x1="15.8" y1="463.4" x2="50.2" y2="447.4"/>
<g>
	
		<line fill="none" stroke="#6C7A89" stroke-width="3" stroke-linecap="round" stroke-linejoin="round" stroke-miterlimit="10" x1="15.8" y1="338.2" x2="67.4" y2="314.2"/>
	
		<line fill="none" stroke="#6C7A89" stroke-width="3" stroke-linecap="round" stroke-linejoin="round" stroke-miterlimit="10" x1="15.8" y1="351.4" x2="67.4" y2="327"/>
	
		<line fill="none" stroke="#6C7A89" stroke-width="3" stroke-linecap="round" stroke-linejoin="round" stroke-miterlimit="10" x1="15.8" y1="364.2" x2="67.4" y2="340.2"/>
	
		<line fill="none" stroke="#6C7A89" stroke-width="3" stroke-linecap="round" stroke-linejoin="round" stroke-miterlimit="10" x1="15.8" y1="377" x2="67.4" y2="353"/>
	
		<line fill="none" stroke="#6C7A89" stroke-width="3" stroke-linecap="round" stroke-linejoin="round" stroke-miterlimit="10" x1="15.8" y1="390.2" x2="50.2" y2="374.2"/>
</g>
<polygon fill="none" stroke="#6C7A89" stroke-width="3" stroke-linecap="round" stroke-linejoin="round" stroke-miterlimit="10" points="
	-79.4,313 -27.4,337 -27.4,389 -79.4,365 "/>
<g>
	
		<line fill="none" stroke="#6C7A89" stroke-width="3" stroke-linecap="round" stroke-linejoin="round" stroke-miterlimit="10" x1="110.6" y1="383.8" x2="162.6" y2="408.2"/>
	
		<line fill="none" stroke="#6C7A89" stroke-width="3" stroke-linecap="round" stroke-linejoin="round" stroke-miterlimit="10" x1="110.6" y1="397" x2="162.6" y2="421"/>
	
		<line fill="none" stroke="#6C7A89" stroke-width="3" stroke-linecap="round" stroke-linejoin="round" stroke-miterlimit="10" x1="110.6" y1="409.8" x2="162.6" y2="433.8"/>
	
		<line fill="none" stroke="#6C7A89" stroke-width="3" stroke-linecap="round" stroke-linejoin="round" stroke-miterlimit="10" x1="110.6" y1="422.6" x2="162.6" y2="447"/>
	
		<line fill="none" stroke="#6C7A89" stroke-width="3" stroke-linecap="round" stroke-linejoin="round" stroke-miterlimit="10" x1="110.6" y1="435.8" x2="145" y2="451.8"/>
</g>
<polygon fill="none" stroke="#6C7A89" stroke-width="3" stroke-linecap="round" stroke-linejoin="round" stroke-miterlimit="10" points="
	110.6,304.2 162.6,328.2 162.6,380.2 110.6,355.8 "/>
<polygon fill="none" stroke="#6C7A89" stroke-width="3" stroke-linecap="round" stroke-linejoin="round" stroke-miterlimit="10" points="
	205.4,403.4 257,379.4 257,431 205.4,455.4 "/>
</svg>
