<?xml version="1.0" encoding="utf-8"?>
<!-- Generator: Adobe Illustrator 18.1.1, SVG Export Plug-In . SVG Version: 6.00 Build 0)  -->
<svg version="1.1" id="Layer_1" xmlns="http://www.w3.org/2000/svg" xmlns:xlink="http://www.w3.org/1999/xlink" x="0px" y="0px"
	 width="600px" height="400px" viewBox="-211 185 600 400" enable-background="new -211 185 600 400" xml:space="preserve">
<path fill="none" stroke="#6C7A89" stroke-width="6" stroke-linejoin="round" stroke-miterlimit="10" d="M222.2,466.2H-91.4
	c-4.4,0-8-3.6-8-8V272.6c0-4.4,3.6-8,8-8h313.6c4.4,0,8,3.6,8,8v185.6C230.2,462.6,226.6,466.2,222.2,466.2z"/>
<path fill="none" stroke="#6C7A89" stroke-width="2" stroke-linejoin="round" stroke-miterlimit="10" d="M206.2,446.2H-75.4
	c-4.4,0-8-3.6-8-8v-148c0-4.4,3.6-8,8-8h281.6c4.4,0,8,3.6,8,8v148C214.2,442.6,210.6,446.2,206.2,446.2z"/>
<rect x="41.4" y="466.2" fill="none" stroke="#6C7A89" stroke-width="6" stroke-linejoin="round" stroke-miterlimit="10" width="48.4" height="28.4"/>
<rect x="17" y="494.6" fill="none" stroke="#6C7A89" stroke-width="6" stroke-linejoin="round" stroke-miterlimit="10" width="96.4" height="12"/>
<circle fill="#6C7A89" cx="81.4" cy="454.2" r="3.6"/>
<circle fill="#6C7A89" cx="65.4" cy="454.2" r="3.6"/>
<circle fill="#6C7A89" cx="49.4" cy="454.2" r="3.6"/>
<line fill="none" stroke="#6C7A89" stroke-width="3" stroke-linecap="round" stroke-miterlimit="10" x1="-39.8" y1="415" x2="-19.8" y2="415"/>
<line fill="none" stroke="#6C7A89" stroke-width="3" stroke-linecap="round" stroke-miterlimit="10" x1="37.8" y1="415" x2="73.8" y2="415"/>
<line fill="none" stroke="#6C7A89" stroke-width="3" stroke-linecap="round" stroke-miterlimit="10" x1="-39.8" y1="395" x2="4.2" y2="395"/>
<line fill="none" stroke="#6C7A89" stroke-width="3" stroke-linecap="round" stroke-miterlimit="10" x1="-39.8" y1="405.1" x2="1" y2="405.1"/>
<line fill="none" stroke="#6C7A89" stroke-width="3" stroke-linecap="round" stroke-miterlimit="10" x1="37.8" y1="395" x2="81.8" y2="395"/>
<line fill="none" stroke="#6C7A89" stroke-width="3" stroke-linecap="round" stroke-miterlimit="10" x1="37.8" y1="405.1" x2="82.6" y2="405.1"/>
<rect x="-39.8" y="330.2" fill="none" stroke="#6C7A89" stroke-width="3" stroke-linejoin="round" stroke-miterlimit="10" width="51.2" height="50"/>
<line fill="none" stroke="#6C7A89" stroke-width="3" stroke-linejoin="round" stroke-miterlimit="10" x1="-39.8" y1="379.8" x2="11.4" y2="330.2"/>
<line fill="none" stroke="#6C7A89" stroke-width="3" stroke-linejoin="round" stroke-miterlimit="10" x1="-39.8" y1="330.2" x2="11.4" y2="379.8"/>
<rect x="37.8" y="330.2" fill="none" stroke="#6C7A89" stroke-width="3" stroke-linejoin="round" stroke-miterlimit="10" width="51.2" height="50"/>
<line fill="none" stroke="#6C7A89" stroke-width="3" stroke-linejoin="round" stroke-miterlimit="10" x1="37.8" y1="379.8" x2="89" y2="330.2"/>
<line fill="none" stroke="#6C7A89" stroke-width="3" stroke-linejoin="round" stroke-miterlimit="10" x1="37.8" y1="330.2" x2="89" y2="379.8"/>
<line fill="none" stroke="#6C7A89" stroke-width="3" stroke-linecap="round" stroke-miterlimit="10" x1="115.8" y1="395" x2="155.8" y2="395"/>
<line fill="none" stroke="#6C7A89" stroke-width="3" stroke-linecap="round" stroke-miterlimit="10" x1="115.8" y1="405.1" x2="156.6" y2="405.1"/>
<line fill="none" stroke="#6C7A89" stroke-width="3" stroke-linecap="round" stroke-miterlimit="10" x1="115.8" y1="415" x2="139.8" y2="415"/>
<rect x="115.8" y="330.2" fill="none" stroke="#6C7A89" stroke-width="3" stroke-linejoin="round" stroke-miterlimit="10" width="51.2" height="50"/>
<line fill="none" stroke="#6C7A89" stroke-width="3" stroke-linejoin="round" stroke-miterlimit="10" x1="115.8" y1="379.8" x2="167" y2="330.2"/>
<line fill="none" stroke="#6C7A89" stroke-width="3" stroke-linejoin="round" stroke-miterlimit="10" x1="115.8" y1="330.2" x2="167" y2="379.8"/>
<line fill="none" stroke="#6C7A89" stroke-width="3" stroke-linecap="round" stroke-miterlimit="10" x1="193" y1="291" x2="177" y2="291"/>
<line fill="none" stroke="#6C7A89" stroke-width="3" stroke-linecap="round" stroke-miterlimit="10" x1="161" y1="291" x2="145" y2="291"/>
<line fill="none" stroke="#6C7A89" stroke-width="3" stroke-linecap="round" stroke-miterlimit="10" x1="129" y1="291" x2="113" y2="291"/>
<path fill="#FFFFFF" stroke="#6C7A89" stroke-width="6" stroke-linejoin="round" stroke-miterlimit="10" d="M173,337.4h93.6
	c4.4,0,8,3.6,8,8v153.2c0,4.4-3.6,8-8,8H173c-4.4,0-8-3.6-8-8V345.4C165,341,168.6,337.4,173,337.4z"/>
<path fill="none" stroke="#6C7A89" stroke-width="2" stroke-linejoin="round" stroke-miterlimit="10" d="M187,349.8h66
	c4.4,0,8,3.6,8,8V485c0,4.4-3.6,8-8,8h-66c-4.4,0-8-3.6-8-8V357.8C179,353.4,182.6,349.8,187,349.8z"/>
<path fill="#FFFFFF" stroke="#6C7A89" stroke-width="6" stroke-linejoin="round" stroke-miterlimit="10" d="M187.8,506.6h-46.4
	c-4.4,0-8-3.6-8-8v-94.8c0-4.4,3.6-8,8-8h46.4c4.4,0,8,3.6,8,8v94.8C195.8,503,192.2,506.6,187.8,506.6z"/>
<path fill="none" stroke="#6C7A89" stroke-width="2" stroke-linejoin="round" stroke-miterlimit="10" d="M177.8,483h-26.1
	c-4.8,0-8.8-3.5-8.8-7.9v-58.9c0-4.3,4-7.9,8.8-7.9h26.1c4.8,0,8.8,3.5,8.8,7.9v58.9C186.8,479.5,182.7,483,177.8,483z"/>
<circle fill="#6C7A89" cx="164.6" cy="492.6" r="4.8"/>
</svg>
