<?xml version="1.0" encoding="utf-8"?>
<!-- Generator: Adobe Illustrator 18.1.0, SVG Export Plug-In . SVG Version: 6.00 Build 0)  -->
<!DOCTYPE svg PUBLIC "-//W3C//DTD SVG 1.1//EN" "http://www.w3.org/Graphics/SVG/1.1/DTD/svg11.dtd">
<svg version="1.1" id="Layer_1" xmlns="http://www.w3.org/2000/svg" xmlns:xlink="http://www.w3.org/1999/xlink" x="0px" y="0px"
	 viewBox="0 0 50 50" enable-background="new 0 0 50 50" xml:space="preserve">
<g>
	<path fill="#FFFFFF" d="M20,23.6c0,0,4.7-0.3,4.7-5.9c0-5.5-3.8-8.2-8.7-8.2h-9H6.8H0v30.8h6.8h0.3h9c0,0,9.8,0.3,9.8-9.1
		C25.8,31.3,26.2,23.6,20,23.6z M7.1,15.1h7.8H16c0,0,2.2,0,2.2,3.2c0,3.2-1.3,3.7-2.7,3.7H7.1L7.1,15.1L7.1,15.1z M15.6,34.9
		c-0.2,0-0.4,0-0.6,0H7.1v-8.2h9c0,0,3.2,0,3.2,4.2C19.3,34.5,16.8,34.9,15.6,34.9z"/>
	<path fill="#FFFFFF" d="M38.9,17.4C27,17.4,27,29.3,27,29.3S26.2,41,38.9,41c0,0,10.5,0.6,10.5-8.2H44c0,0,0.2,3.3-4.9,3.3
		c0,0-5.4,0.4-5.4-5.4h16C49.6,30.8,51.3,17.4,38.9,17.4z M33.6,26.7c0,0,0.7-4.7,5.4-4.7c4.8,0,4.7,4.7,4.7,4.7H33.6z"/>
	<rect x="32.2" y="11.4" fill="#FFFFFF" width="12.7" height="3.8"/>
</g>
</svg>
