<?xml version="1.0" encoding="utf-8"?>
<!-- Generator: Adobe Illustrator 18.1.0, SVG Export Plug-In . SVG Version: 6.00 Build 0)  -->
<svg version="1.1" id="Layer_1" xmlns="http://www.w3.org/2000/svg" xmlns:xlink="http://www.w3.org/1999/xlink" x="0px" y="0px"
	 viewBox="0 0 600 400" enable-background="new 0 0 600 400" xml:space="preserve">
<path fill="none" stroke="#000000" stroke-width="6" stroke-linejoin="round" stroke-miterlimit="10" d="M433.2,281.2H119.6
	c-4.4,0-8-3.6-8-8V87.6c0-4.4,3.6-8,8-8h313.6c4.4,0,8,3.6,8,8v185.6C441.2,277.6,437.6,281.2,433.2,281.2z"/>
<path fill="#E5E5E5" d="M417.2,261.2H135.6c-4.4,0-8-3.6-8-8v-148c0-4.4,3.6-8,8-8h281.6c4.4,0,8,3.6,8,8v148
	C425.2,257.6,421.6,261.2,417.2,261.2z"/>
<rect x="252.4" y="281.2" fill="none" stroke="#000000" stroke-width="6" stroke-linejoin="round" stroke-miterlimit="10" width="48.4" height="28.4"/>
<rect x="228" y="309.6" fill="none" stroke="#000000" stroke-width="6" stroke-linejoin="round" stroke-miterlimit="10" width="96.4" height="12"/>
<circle cx="292.4" cy="269.2" r="3.6"/>
<circle cx="276.4" cy="269.2" r="3.6"/>
<circle cx="260.4" cy="269.2" r="3.6"/>
<path fill="#EFEFEF" d="M410.4,96.8H134.8c-4.4,0-7.2,3.6-7.2,8v144L410.4,96.8z"/>
<line fill="none" stroke="#000000" stroke-width="3" stroke-linecap="round" stroke-miterlimit="10" x1="171.2" y1="230" x2="191.2" y2="230"/>
<line fill="none" stroke="#000000" stroke-width="3" stroke-linecap="round" stroke-miterlimit="10" x1="248.8" y1="230" x2="284.8" y2="230"/>
<line fill="none" stroke="#000000" stroke-width="3" stroke-linecap="round" stroke-miterlimit="10" x1="171.2" y1="210" x2="215.2" y2="210"/>
<line fill="none" stroke="#000000" stroke-width="3" stroke-linecap="round" stroke-miterlimit="10" x1="171.2" y1="220.1" x2="212" y2="220.1"/>
<line fill="none" stroke="#000000" stroke-width="3" stroke-linecap="round" stroke-miterlimit="10" x1="248.8" y1="210" x2="292.8" y2="210"/>
<line fill="none" stroke="#000000" stroke-width="3" stroke-linecap="round" stroke-miterlimit="10" x1="248.8" y1="220.1" x2="293.6" y2="220.1"/>
<rect x="171.2" y="145.2" fill="none" stroke="#000000" stroke-width="3" stroke-linejoin="round" stroke-miterlimit="10" width="51.2" height="50"/>
<line fill="none" stroke="#000000" stroke-width="3" stroke-linejoin="round" stroke-miterlimit="10" x1="171.2" y1="194.8" x2="222.4" y2="145.2"/>
<line fill="none" stroke="#000000" stroke-width="3" stroke-linejoin="round" stroke-miterlimit="10" x1="171.2" y1="145.2" x2="222.4" y2="194.8"/>
<rect x="248.8" y="145.2" fill="none" stroke="#000000" stroke-width="3" stroke-linejoin="round" stroke-miterlimit="10" width="51.2" height="50"/>
<line fill="none" stroke="#000000" stroke-width="3" stroke-linejoin="round" stroke-miterlimit="10" x1="248.8" y1="194.8" x2="300" y2="145.2"/>
<line fill="none" stroke="#000000" stroke-width="3" stroke-linejoin="round" stroke-miterlimit="10" x1="248.8" y1="145.2" x2="300" y2="194.8"/>
<line fill="none" stroke="#000000" stroke-width="3" stroke-linecap="round" stroke-miterlimit="10" x1="326.8" y1="210" x2="366.8" y2="210"/>
<line fill="none" stroke="#000000" stroke-width="3" stroke-linecap="round" stroke-miterlimit="10" x1="326.8" y1="220.1" x2="367.6" y2="220.1"/>
<line fill="none" stroke="#000000" stroke-width="3" stroke-linecap="round" stroke-miterlimit="10" x1="326.8" y1="230" x2="350.8" y2="230"/>
<rect x="326.8" y="145.2" fill="none" stroke="#000000" stroke-width="3" stroke-linejoin="round" stroke-miterlimit="10" width="51.2" height="50"/>
<line fill="none" stroke="#000000" stroke-width="3" stroke-linejoin="round" stroke-miterlimit="10" x1="326.8" y1="194.8" x2="378" y2="145.2"/>
<line fill="none" stroke="#000000" stroke-width="3" stroke-linejoin="round" stroke-miterlimit="10" x1="326.8" y1="145.2" x2="378" y2="194.8"/>
<line fill="none" stroke="#000000" stroke-width="3" stroke-linecap="round" stroke-miterlimit="10" x1="404" y1="106" x2="388" y2="106"/>
<line fill="none" stroke="#000000" stroke-width="3" stroke-linecap="round" stroke-miterlimit="10" x1="372" y1="106" x2="356" y2="106"/>
<line fill="none" stroke="#000000" stroke-width="3" stroke-linecap="round" stroke-miterlimit="10" x1="340" y1="106" x2="324" y2="106"/>
<path fill="#FFFFFF" stroke="#000000" stroke-width="6" stroke-linejoin="round" stroke-miterlimit="10" d="M384,152.4h93.6
	c4.4,0,8,3.6,8,8v153.2c0,4.4-3.6,8-8,8H384c-4.4,0-8-3.6-8-8V160.4C376,156,379.6,152.4,384,152.4z"/>
<path fill="#E5E5E5" d="M398,164.8h66c4.4,0,8,3.6,8,8V300c0,4.4-3.6,8-8,8h-66c-4.4,0-8-3.6-8-8V172.8
	C390,168.4,393.6,164.8,398,164.8z"/>
<path fill="#EFEFEF" d="M462.4,164.8H396c-3.2,0-6,2.8-6,6v41.6L462.4,164.8z"/>
<path fill="#FFFFFF" stroke="#000000" stroke-width="6" stroke-linejoin="round" stroke-miterlimit="10" d="M398.8,321.6h-46.4
	c-4.4,0-8-3.6-8-8v-94.8c0-4.4,3.6-8,8-8h46.4c4.4,0,8,3.6,8,8v94.8C406.8,318,403.2,321.6,398.8,321.6z"/>
<path fill="#E5E5E5" d="M390.6,298H361c-5.5,0-10-3.7-10-8.2v-61.5c0-4.5,4.5-8.2,10-8.2h29.6c5.5,0,10,3.7,10,8.2v61.5
	C400.7,294.3,396.1,298,390.6,298z"/>
<circle cx="375.6" cy="307.6" r="4.8"/>
</svg>
