<?xml version="1.0" encoding="utf-8"?>
<!-- Generator: Adobe Illustrator 18.1.0, SVG Export Plug-In . SVG Version: 6.00 Build 0)  -->
<svg version="1.1" id="Layer_1" xmlns="http://www.w3.org/2000/svg" xmlns:xlink="http://www.w3.org/1999/xlink" x="0px" y="0px"
	 viewBox="0 0 600 400" enable-background="new 0 0 600 400" xml:space="preserve">
<polygon fill="none" stroke="#000000" stroke-width="6" stroke-linejoin="round" stroke-miterlimit="10" points="204,346 
	108.8,301.6 108.8,55.2 204,100 "/>
<polygon fill="#E5E5E5" stroke="#000000" stroke-width="6" stroke-linejoin="round" stroke-miterlimit="10" points="299.2,301.6 
	204,346 204,100 299.2,55.2 "/>
<polygon fill="none" stroke="#000000" stroke-width="6" stroke-linejoin="round" stroke-miterlimit="10" points="394.8,346 
	299.2,301.6 299.2,55.2 394.8,100 "/>
<polygon fill="#E5E5E5" stroke="#000000" stroke-width="6" stroke-linejoin="round" stroke-miterlimit="10" points="394.8,99.6 
	394.8,346 489.6,301.6 489.6,108 439.2,79.2 "/>
<polygon fill="#C6C6C6" stroke="#000000" stroke-width="6" stroke-linejoin="round" stroke-miterlimit="10" points="439.2,131.2 
	489.6,108 439.2,79.2 "/>
<g>
	
		<line fill="none" stroke="#000000" stroke-width="3" stroke-linecap="round" stroke-linejoin="round" stroke-miterlimit="10" x1="131.6" y1="203.6" x2="183.6" y2="227.6"/>
	
		<line fill="none" stroke="#000000" stroke-width="3" stroke-linecap="round" stroke-linejoin="round" stroke-miterlimit="10" x1="131.6" y1="216.4" x2="183.6" y2="240.8"/>
	
		<line fill="none" stroke="#000000" stroke-width="3" stroke-linecap="round" stroke-linejoin="round" stroke-miterlimit="10" x1="131.6" y1="229.6" x2="183.6" y2="253.6"/>
	
		<line fill="none" stroke="#000000" stroke-width="3" stroke-linecap="round" stroke-linejoin="round" stroke-miterlimit="10" x1="131.6" y1="242.4" x2="183.6" y2="266.4"/>
	
		<line fill="none" stroke="#000000" stroke-width="3" stroke-linecap="round" stroke-linejoin="round" stroke-miterlimit="10" x1="131.6" y1="255.2" x2="166.4" y2="271.6"/>
</g>
<line fill="none" stroke="#000000" stroke-width="3" stroke-linecap="round" stroke-linejoin="round" stroke-miterlimit="10" x1="226.8" y1="226.8" x2="278.4" y2="202.4"/>
<line fill="none" stroke="#000000" stroke-width="3" stroke-linecap="round" stroke-linejoin="round" stroke-miterlimit="10" x1="226.8" y1="239.6" x2="278.4" y2="215.6"/>
<line fill="none" stroke="#000000" stroke-width="3" stroke-linecap="round" stroke-linejoin="round" stroke-miterlimit="10" x1="226.8" y1="252.8" x2="278.4" y2="228.4"/>
<line fill="none" stroke="#000000" stroke-width="3" stroke-linecap="round" stroke-linejoin="round" stroke-miterlimit="10" x1="226.8" y1="265.6" x2="278.4" y2="241.6"/>
<line fill="none" stroke="#000000" stroke-width="3" stroke-linecap="round" stroke-linejoin="round" stroke-miterlimit="10" x1="226.8" y1="278.4" x2="261.2" y2="262.4"/>
<g>
	
		<line fill="none" stroke="#000000" stroke-width="3" stroke-linecap="round" stroke-linejoin="round" stroke-miterlimit="10" x1="226.8" y1="153.2" x2="278.4" y2="129.2"/>
	
		<line fill="none" stroke="#000000" stroke-width="3" stroke-linecap="round" stroke-linejoin="round" stroke-miterlimit="10" x1="226.8" y1="166.4" x2="278.4" y2="142"/>
	
		<line fill="none" stroke="#000000" stroke-width="3" stroke-linecap="round" stroke-linejoin="round" stroke-miterlimit="10" x1="226.8" y1="179.2" x2="278.4" y2="155.2"/>
	
		<line fill="none" stroke="#000000" stroke-width="3" stroke-linecap="round" stroke-linejoin="round" stroke-miterlimit="10" x1="226.8" y1="192" x2="278.4" y2="168"/>
	
		<line fill="none" stroke="#000000" stroke-width="3" stroke-linecap="round" stroke-linejoin="round" stroke-miterlimit="10" x1="226.8" y1="205.2" x2="261.2" y2="189.2"/>
</g>
<polygon fill="none" stroke="#000000" stroke-width="3" stroke-linecap="round" stroke-linejoin="round" stroke-miterlimit="10" points="
	131.6,128 183.6,152 183.6,204 131.6,180 "/>
<g>
	
		<line fill="none" stroke="#000000" stroke-width="3" stroke-linecap="round" stroke-linejoin="round" stroke-miterlimit="10" x1="321.6" y1="198.8" x2="373.6" y2="223.2"/>
	
		<line fill="none" stroke="#000000" stroke-width="3" stroke-linecap="round" stroke-linejoin="round" stroke-miterlimit="10" x1="321.6" y1="212" x2="373.6" y2="236"/>
	
		<line fill="none" stroke="#000000" stroke-width="3" stroke-linecap="round" stroke-linejoin="round" stroke-miterlimit="10" x1="321.6" y1="224.8" x2="373.6" y2="248.8"/>
	
		<line fill="none" stroke="#000000" stroke-width="3" stroke-linecap="round" stroke-linejoin="round" stroke-miterlimit="10" x1="321.6" y1="237.6" x2="373.6" y2="262"/>
	
		<line fill="none" stroke="#000000" stroke-width="3" stroke-linecap="round" stroke-linejoin="round" stroke-miterlimit="10" x1="321.6" y1="250.8" x2="356" y2="266.8"/>
</g>
<polygon fill="none" stroke="#000000" stroke-width="3" stroke-linecap="round" stroke-linejoin="round" stroke-miterlimit="10" points="
	321.6,119.2 373.6,143.2 373.6,195.2 321.6,170.8 "/>
<polygon fill="none" stroke="#000000" stroke-width="3" stroke-linecap="round" stroke-linejoin="round" stroke-miterlimit="10" points="
	416.4,218.4 468,194.4 468,246 416.4,270.4 "/>
</svg>
