<?xml version="1.0" encoding="utf-8"?>
<!-- Generator: Adobe Illustrator 18.1.0, SVG Export Plug-In . SVG Version: 6.00 Build 0)  -->
<svg version="1.1" id="Layer_1" xmlns="http://www.w3.org/2000/svg" xmlns:xlink="http://www.w3.org/1999/xlink" x="0px" y="0px"
	 viewBox="0 0 600 400" enable-background="new 0 0 600 400" xml:space="preserve">
<path fill="none" stroke="#000000" stroke-width="6" stroke-linejoin="round" stroke-miterlimit="10" d="M298.8,92
	c-75.2,0-142.4,39.6-186,110c43.6,70.4,110.8,110,186,110s142.4-39.6,186-110C440.8,131.6,374,92,298.8,92z"/>
<circle fill="#E5E5E5" stroke="#000000" stroke-width="6" stroke-linejoin="round" stroke-miterlimit="10" cx="298.8" cy="202" r="110"/>
<path fill="#FFFFFF" stroke="#000000" stroke-width="6" stroke-linejoin="round" stroke-miterlimit="10" d="M298.8,136.8
	c-4.8,0-10,0.4-14.4,1.6c4.4,6.4,7.2,14,7.2,22.4c0,21.6-17.6,39.2-39.2,39.2c-6.8,0-12.8-1.6-18.4-4.4c-0.4,2-0.4,4.4-0.4,6.4
	c0,36,29.2,65.2,65.2,65.2S364,238,364,202S334.8,136.8,298.8,136.8z"/>
<g>
	
		<line fill="none" stroke="#000000" stroke-width="3" stroke-linecap="round" stroke-linejoin="round" stroke-miterlimit="10" x1="158.8" y1="114.4" x2="148.4" y2="96.4"/>
	
		<line fill="none" stroke="#000000" stroke-width="3" stroke-linecap="round" stroke-linejoin="round" stroke-miterlimit="10" x1="205.6" y1="82" x2="189.2" y2="37.6"/>
	
		<line fill="none" stroke="#000000" stroke-width="3" stroke-linecap="round" stroke-linejoin="round" stroke-miterlimit="10" x1="254.8" y1="64.4" x2="251.2" y2="44"/>
	
		<line fill="none" stroke="#000000" stroke-width="3" stroke-linecap="round" stroke-linejoin="round" stroke-miterlimit="10" x1="439.2" y1="114.4" x2="449.6" y2="96.4"/>
	
		<line fill="none" stroke="#000000" stroke-width="3" stroke-linecap="round" stroke-linejoin="round" stroke-miterlimit="10" x1="392.4" y1="82" x2="408.8" y2="37.6"/>
	
		<line fill="none" stroke="#000000" stroke-width="3" stroke-linecap="round" stroke-linejoin="round" stroke-miterlimit="10" x1="343.2" y1="64.4" x2="346.8" y2="44"/>
	
		<line fill="none" stroke="#000000" stroke-width="3" stroke-linecap="round" stroke-linejoin="round" stroke-miterlimit="10" x1="300" y1="60" x2="300" y2="12.8"/>
</g>
<g>
	
		<line fill="none" stroke="#000000" stroke-width="3" stroke-linecap="round" stroke-linejoin="round" stroke-miterlimit="10" x1="439.2" y1="290" x2="449.6" y2="307.6"/>
	
		<line fill="none" stroke="#000000" stroke-width="3" stroke-linecap="round" stroke-linejoin="round" stroke-miterlimit="10" x1="392.4" y1="322" x2="408.8" y2="366.4"/>
	
		<line fill="none" stroke="#000000" stroke-width="3" stroke-linecap="round" stroke-linejoin="round" stroke-miterlimit="10" x1="343.2" y1="339.6" x2="346.8" y2="360"/>
	
		<line fill="none" stroke="#000000" stroke-width="3" stroke-linecap="round" stroke-linejoin="round" stroke-miterlimit="10" x1="158.8" y1="290" x2="148.4" y2="307.6"/>
	
		<line fill="none" stroke="#000000" stroke-width="3" stroke-linecap="round" stroke-linejoin="round" stroke-miterlimit="10" x1="205.6" y1="322" x2="189.2" y2="366.4"/>
	
		<line fill="none" stroke="#000000" stroke-width="3" stroke-linecap="round" stroke-linejoin="round" stroke-miterlimit="10" x1="254.8" y1="339.6" x2="251.2" y2="360"/>
	
		<line fill="none" stroke="#000000" stroke-width="3" stroke-linecap="round" stroke-linejoin="round" stroke-miterlimit="10" x1="298" y1="344" x2="298" y2="391.6"/>
</g>
</svg>
