<?xml version="1.0" encoding="utf-8"?>
<!-- Generator: Adobe Illustrator 18.1.0, SVG Export Plug-In . SVG Version: 6.00 Build 0)  -->
<!DOCTYPE svg PUBLIC "-//W3C//DTD SVG 1.1//EN" "http://www.w3.org/Graphics/SVG/1.1/DTD/svg11.dtd">
<svg version="1.1" id="Layer_1" xmlns="http://www.w3.org/2000/svg" xmlns:xlink="http://www.w3.org/1999/xlink" x="0px" y="0px"
	 viewBox="0 0 50 50" enable-background="new 0 0 50 50" xml:space="preserve">
<path fill="#FFFFFF" d="M41.3,2.9H8.5c-3.1,0-5.5,2.5-5.5,5.5v32.8c0,3.1,2.5,5.5,5.5,5.5h32.8c3.1,0,5.5-2.5,5.5-5.5V8.5
	C46.8,5.4,44.4,2.9,41.3,2.9z M24.9,18.4c3.5,0,6.4,2.9,6.4,6.4c0,3.5-2.9,6.4-6.4,6.4c-3.5,0-6.4-2.9-6.4-6.4
	C18.4,21.3,21.3,18.4,24.9,18.4z M41.7,39c0,1.5-1.4,2.8-3,2.8H11.1C9.6,41.7,8,40.5,8,39V25.1c0-1.5,1.5-2.8,3.1-2.8h1.5
	c0.3,0,0.6,0.1,0.8,0.3c0.2,0.2,0.3,0.5,0.2,0.8c-0.1,0.5-0.1,0.9-0.1,1.4c0,6.3,5.1,11.3,11.3,11.3c6.3,0,11.3-5.1,11.3-11.3
	c0-0.5,0-0.9-0.1-1.4c0-0.3,0.1-0.6,0.2-0.8c0.2-0.2,0.5-0.3,0.8-0.3h1.7c1.5,0,3,1.3,3,2.8L41.7,39L41.7,39z M41.7,13.4L41.7,13.4
	c0,1.5-1.2,2.8-2.8,2.8h-2.6c-1.5,0-2.8-1.2-2.8-2.8v-2.6c0-1.5,1.2-2.8,2.8-2.8H39c1.5,0,2.8,1.2,2.8,2.8V13.4z"/>
</svg>
