<?xml version="1.0" encoding="utf-8"?>
<!-- Generator: Adobe Illustrator 18.1.0, SVG Export Plug-In . SVG Version: 6.00 Build 0)  -->
<!DOCTYPE svg PUBLIC "-//W3C//DTD SVG 1.1//EN" "http://www.w3.org/Graphics/SVG/1.1/DTD/svg11.dtd">
<svg version="1.1" id="Layer_1" xmlns="http://www.w3.org/2000/svg" xmlns:xlink="http://www.w3.org/1999/xlink" x="0px" y="0px"
	 viewBox="0 0 100 100" enable-background="new 0 0 100 100" xml:space="preserve">
<path fill="#231F20" d="M90.1,11.5C90.1,11.5,90,11.5,90.1,11.5C90,11.4,90,11.4,90,11.4C90,11.4,90,11.5,90.1,11.5z"/>
<path fill="#231F20" d="M13.1,11.4C13.1,11.4,13,11.4,13.1,11.4C13,11.5,13,11.5,13,11.5C13,11.5,13,11.4,13.1,11.4z"/>
<g>
	<g>
		<path fill="#FFFFFF" d="M80.9,77.5l-0.4,0.4c-0.9,0.7-1.9,1.1-3.1,1.1c-2.7,0-5-2.2-5-4.9l0,0v-0.2h0V41.6
			C72,36,69.8,30.9,66.3,27v63.9C68.6,90.1,76.3,86.7,80.9,77.5z"/>
	</g>
	<g>
		<path fill="#FFFFFF" d="M53.5,19.8c-0.4-0.1-10.5-2-17.6-2S24.7,9.2,24.7,9.2s0,5.9,0,12s8.6,10.6,8.6,10.6l-6.1,3.7v36.6
			c-1.2-0.3-2.5-0.5-3.8-0.5c-7.3,0-13.2,5.8-13.5,13c2.4-2.2,5.5-3.5,9-3.5c3.7,0,7,1.5,9.4,3.9c0,0,0.5,0.5,1.3,1.5
			c1.4-4.7,5.7-8.1,10.9-8.1c1.7,0,3.4,0.4,4.9,1.1v-1.9v-1.1V58.9H53v25.7l9.8,5.8V23.9C60.1,21.9,56.9,20.5,53.5,19.8z M41.8,76.8
			c-0.5-0.1-0.9-0.1-1.4-0.1c-2,0-3.9,0.4-5.6,1.2c-1.3-2.1-3.2-3.9-5.5-5l9-5.4V33.4c0-0.9,0.8-1.6,1.7-1.6c1,0,1.7,0.8,1.7,1.7
			L41.8,76.8L41.8,76.8z M53,49.2h-7.8V35.1c0.3-1.9,1.9-3.3,3.9-3.3c2,0,3.6,1.5,3.9,3.4V49.2L53,49.2L53,49.2z"/>
	</g>
</g>
</svg>
