<?xml version="1.0" encoding="utf-8"?>
<!-- Generator: Adobe Illustrator 18.1.1, SVG Export Plug-In . SVG Version: 6.00 Build 0)  -->
<svg version="1.1" id="Layer_1" xmlns="http://www.w3.org/2000/svg" xmlns:xlink="http://www.w3.org/1999/xlink" x="0px" y="0px"
	 width="100px" height="100px" viewBox="0 0 100 100" enable-background="new 0 0 100 100" xml:space="preserve">
<g>
	<path fill="none" stroke="#FF4E4E" stroke-width="4" stroke-miterlimit="10" d="M57.2,48.1c0-0.4,0.1-0.8,0.1-1.2l9.4-39.8
		c0.7-3,3.7-4.8,6.6-4.1l0.1,0c2.9,0.7,4.8,3.7,4.1,6.7l-9.1,38.5"/>
	<path fill="none" stroke="#FF4E4E" stroke-width="4" stroke-miterlimit="10" d="M56.9,48.1c0-0.4-0.1-0.9-0.1-1.3L47.3,7
		c-0.7-3-3.7-4.8-6.6-4.1l-0.1,0c-2.9,0.7-4.8,3.7-4.1,6.7L46.1,50"/>
	<path fill="none" stroke="#FF4E4E" stroke-width="4" stroke-miterlimit="10" d="M66.4,58.9H50.2c-3,0-5.5-2.3-5.5-5.4v0.1
		c0-3.1,2.5-5.5,5.5-5.5H73c3,0,5.5,2.5,5.5,5.6v15c0,15.8-12.7,28.5-28.4,28.5S21.7,84.5,21.7,68.7V51.4"/>
	<path fill="none" stroke="#FF4E4E" stroke-width="4" stroke-miterlimit="10" d="M32.5,62.5c0,3.5-2.4,6.3-5.4,6.3l0,0
		c-3,0-5.4-2.8-5.4-6.3V51.4c0-3.5,2.4-6.3,5.4-6.3l0,0c3,0,5.4,2.8,5.4,6.3V62.5z"/>
	<path fill="none" stroke="#FF4E4E" stroke-width="4" stroke-miterlimit="10" d="M38.1,68.8L38.1,68.8c-3.1,0-5.7-2.5-5.7-5.7V41.1
		c0-3.1,2.5-5.7,5.7-5.7h0c3.1,0,5.7,2.5,5.7,5.7v22.1C43.8,66.3,41.3,68.8,38.1,68.8z"/>
	<path fill="none" stroke="#FF4E4E" stroke-width="4" stroke-linecap="round" stroke-linejoin="round" stroke-miterlimit="10" d="
		M48.3,77.1c0-10,8.1-18.2,18.2-18.2"/>
</g>
</svg>
