<?xml version="1.0" encoding="utf-8"?>
<!-- Generator: Adobe Illustrator 18.1.0, SVG Export Plug-In . SVG Version: 6.00 Build 0)  -->
<!DOCTYPE svg PUBLIC "-//W3C//DTD SVG 1.1//EN" "http://www.w3.org/Graphics/SVG/1.1/DTD/svg11.dtd">
<svg version="1.1" id="Layer_1" xmlns="http://www.w3.org/2000/svg" xmlns:xlink="http://www.w3.org/1999/xlink" x="0px" y="0px"
	 viewBox="0 0 50 50" enable-background="new 0 0 50 50" xml:space="preserve">
<g>
	<g>
		<defs>
			<rect id="SVGID_1_" x="1.2" y="6.2" width="47.5" height="38.7"/>
		</defs>
		<clipPath id="SVGID_2_">
			<use xlink:href="#SVGID_1_"  overflow="visible"/>
		</clipPath>
		<g clip-path="url(#SVGID_2_)">
			<defs>
				<rect id="SVGID_3_" x="1.3" y="6.3" width="47.4" height="38.5"/>
			</defs>
			<clipPath id="SVGID_4_">
				<use xlink:href="#SVGID_3_"  overflow="visible"/>
			</clipPath>
			<g clip-path="url(#SVGID_4_)">
				<defs>
					<rect id="SVGID_5_" x="1.2" y="6.2" width="47.5" height="38.7"/>
				</defs>
				<clipPath id="SVGID_6_">
					<use xlink:href="#SVGID_5_"  overflow="visible"/>
				</clipPath>
				<path clip-path="url(#SVGID_6_)" fill="#FFFFFF" d="M16.2,44.8c-5.5,0-10.6-1.6-14.9-4.4c0.8,0.1,1.5,0.1,2.3,0.1
					c4.6,0,8.7-1.6,12.1-4.2c-4.3-0.1-7.8-2.9-9.1-6.8c0.6,0.1,1.2,0.2,1.8,0.2c0.9,0,1.7-0.1,2.6-0.3c-4.4-0.9-7.8-4.8-7.8-9.5
					c0,0,0-0.1,0-0.1C4.5,20.6,6,21,7.6,21.1c-2.6-1.7-4.3-4.7-4.3-8.1c0-1.8,0.5-3.5,1.3-4.9c4.8,5.9,12,9.8,20,10.2
					c-0.2-0.7-0.3-1.5-0.3-2.2c0-5.4,4.4-9.7,9.7-9.7c2.8,0,5.3,1.2,7.1,3.1c2.2-0.4,4.3-1.2,6.2-2.4c-0.7,2.3-2.3,4.2-4.3,5.4
					c2-0.2,3.8-0.8,5.6-1.5c-1.3,1.9-3,3.7-4.9,5c0,0.4,0,0.8,0,1.3C43.8,30,34,44.8,16.2,44.8"/>
			</g>
		</g>
	</g>
</g>
</svg>
