<?xml version="1.0" encoding="utf-8"?>
<!-- Generator: Adobe Illustrator 18.1.1, SVG Export Plug-In . SVG Version: 6.00 Build 0)  -->
<svg version="1.1" id="Layer_1" xmlns="http://www.w3.org/2000/svg" xmlns:xlink="http://www.w3.org/1999/xlink" x="0px" y="0px"
	 width="600px" height="222px" viewBox="0 0 600 222" enable-background="new 0 0 600 222" xml:space="preserve">
<g>
	<g>
		<path fill="#FFFFFF" d="M237,62.3c0.6-0.1,1.2-0.2,1.7-0.3c1.6-0.3,2.7-1.2,2.2-3.7L235.7,34l5-1.1l5.2,23.9
			c1.4,6.4-1.7,8.7-5.4,9.6c-0.9,0.2-1.6,0.3-2.4,0.4L237,62.3z"/>
		<path fill="#FFFFFF" d="M285.9,59.9l-5.1,0.4l-1.4-5.8l-6.3,0.5l-0.4,6l-4.7,0.4l2.5-32.9l7.5-0.6L285.9,59.9z M273.4,50.6
			l4.9-0.4L274.5,34L273.4,50.6z"/>
		<path fill="#FFFFFF" d="M314.1,47.2l-1.8,2.9l-0.6,10l-5.1-0.3l1.9-32.5l5.1,0.3l-0.8,14.2l7.5-13.8l5.1,0.3l-8,14.1l6,18.4
			l-5.2-0.3L314.1,47.2z"/>
		<path fill="#FFFFFF" d="M352.9,46.1l6.9,1.4l-0.9,4.6l-6.9-1.4l-1.9,9.4l8.7,1.8l-0.9,4.6l-13.7-2.8l6.5-31.9l13.7,2.8l-0.9,4.6
			l-8.7-1.8L352.9,46.1z"/>
	</g>
	<g>
		<path fill="#FFFFFF" d="M120.9,186.7v2.8c0,3.4-1.7,5.3-4.9,5.3c-3.3,0-4.9-1.9-4.9-5.3v-11c0-3.4,1.7-5.3,4.9-5.3
			c3.3,0,4.9,1.9,4.9,5.3v2h-3.1v-2.3c0-1.5-0.7-2.1-1.7-2.1c-1.1,0-1.7,0.6-1.7,2.1v11.4c0,1.5,0.7,2,1.7,2c1.1,0,1.7-0.5,1.7-2v-3
			H120.9z"/>
		<path fill="#FFFFFF" d="M142.5,194.5c-0.2-0.5-0.3-0.9-0.3-2.6v-3.3c0-2-0.7-2.7-2.2-2.7h-1.1v8.6h-3.3v-21.1h5
			c3.4,0,4.9,1.6,4.9,4.8v1.7c0,2.2-0.7,3.6-2.2,4.3c1.7,0.7,2.2,2.3,2.2,4.5v3.2c0,1,0,1.8,0.4,2.6H142.5z M138.9,176.5v6.5h1.3
			c1.2,0,2-0.5,2-2.2v-2.1c0-1.5-0.5-2.2-1.7-2.2H138.9z"/>
		<path fill="#FFFFFF" d="M163.6,182.4h4.5v3h-4.5v6.2h5.7v3h-9v-21.1h9v3h-5.7V182.4z"/>
		<path fill="#FFFFFF" d="M194.7,194.5h-3.3l-0.6-3.8h-4.1l-0.6,3.8h-3l3.4-21.1h4.8L194.7,194.5z M187.2,187.9h3.2l-1.6-10.7
			L187.2,187.9z"/>
		<path fill="#FFFFFF" d="M206.8,173.5H217v3h-3.5v18.1h-3.3v-18.1h-3.5V173.5z"/>
		<path fill="#FFFFFF" d="M230.8,178.5c0-3.4,1.8-5.3,5-5.3c3.2,0,5,1.9,5,5.3v11c0,3.4-1.8,5.3-5,5.3c-3.3,0-5-1.9-5-5.3V178.5z
			 M234.2,189.7c0,1.5,0.7,2.1,1.7,2.1c1.1,0,1.7-0.6,1.7-2.1v-11.4c0-1.5-0.7-2.1-1.7-2.1c-1.1,0-1.7,0.6-1.7,2.1V189.7z"/>
		<path fill="#FFFFFF" d="M262.6,194.5c-0.2-0.5-0.3-0.9-0.3-2.6v-3.3c0-2-0.7-2.7-2.2-2.7H259v8.6h-3.3v-21.1h5
			c3.4,0,4.9,1.6,4.9,4.8v1.7c0,2.2-0.7,3.6-2.2,4.3c1.7,0.7,2.2,2.3,2.2,4.5v3.2c0,1,0,1.8,0.4,2.6H262.6z M259,176.5v6.5h1.3
			c1.2,0,2-0.5,2-2.2v-2.1c0-1.5-0.5-2.2-1.7-2.2H259z"/>
		<path fill="#FFFFFF" d="M297.4,178.5c0-3.4,1.8-5.3,5-5.3c3.2,0,5,1.9,5,5.3v11c0,3.4-1.8,5.3-5,5.3c-3.3,0-5-1.9-5-5.3V178.5z
			 M300.7,189.7c0,1.5,0.7,2.1,1.7,2.1c1.1,0,1.7-0.6,1.7-2.1v-11.4c0-1.5-0.7-2.1-1.7-2.1c-1.1,0-1.7,0.6-1.7,2.1V189.7z"/>
		<path fill="#FFFFFF" d="M325.6,182.8h4.3v3h-4.3v8.7h-3.3v-21.1h8.8v3h-5.4V182.8z"/>
		<path fill="#FFFFFF" d="M361.6,173.5h10.2v3h-3.5v18.1H365v-18.1h-3.5V173.5z"/>
		<path fill="#FFFFFF" d="M389.2,194.5h-3.3v-21.1h3.3v9h3.8v-9h3.4v21.1H393v-9h-3.8V194.5z"/>
		<path fill="#FFFFFF" d="M411.4,173.5h3.3v21.1h-3.3V173.5z"/>
		<path fill="#FFFFFF" d="M432.7,179.3v15.3h-3v-21.1h4.2l3.4,12.6v-12.6h2.9v21.1h-3.4L432.7,179.3z"/>
		<path fill="#FFFFFF" d="M460.2,182.8h4.6v6.7c0,3.4-1.7,5.3-4.9,5.3c-3.3,0-4.9-1.9-4.9-5.3v-11c0-3.4,1.7-5.3,4.9-5.3
			c3.3,0,4.9,1.9,4.9,5.3v2h-3.1v-2.3c0-1.5-0.7-2.1-1.7-2.1c-1.1,0-1.7,0.6-1.7,2.1v11.4c0,1.5,0.7,2,1.7,2c1.1,0,1.7-0.5,1.7-2
			v-3.9h-1.5V182.8z"/>
		<path fill="#FFFFFF" d="M484,173.2c3.2,0,4.9,1.9,4.9,5.3v0.7h-3.1v-0.9c0-1.5-0.6-2.1-1.7-2.1c-1.1,0-1.7,0.6-1.7,2.1
			c0,4.3,6.5,5.1,6.5,11.2c0,3.4-1.7,5.3-4.9,5.3c-3.3,0-4.9-1.9-4.9-5.3v-1.3h3.1v1.5c0,1.5,0.7,2,1.7,2s1.7-0.5,1.7-2
			c0-4.3-6.5-5.1-6.5-11.2C479.1,175.2,480.8,173.2,484,173.2z"/>
	</g>
	<g>
		<path fill="#FFFFFF" d="M114.6,145.4h-5.3L98.4,98.2h5.6c1.8,0,3.3-1.5,3.3-3.3s-1.5-3.3-3.3-3.3H58.9c-1.8,0-3.3,1.5-3.3,3.3
			s1.5,3.3,3.3,3.3h4.4l-4.6,19.9h-6.7c-1.8,0-3.3,1.5-3.3,3.3c0,1.8,1.5,3.3,3.3,3.3H57l-4.8,20.6h-2.7c-1.8,0-3.3,1.5-3.3,3.3
			c0,1.8,1.5,3.3,3.3,3.3h5.3h0h0h12.6h0h0h6c1.8,0,3.3-1.5,3.3-3.3c0-1.8-1.5-3.3-3.3-3.3h-1.8l4.8-20.6h21.3l4.8,20.6h-3.8
			c-1.8,0-3.3,1.5-3.3,3.3c0,1.8,1.5,3.3,3.3,3.3h8h0h0h7.9c1.8,0,3.3-1.5,3.3-3.3C118,146.9,116.5,145.4,114.6,145.4z M59.1,145.4
			l11-47.1h5.8l-11,47.1H59.1z M78,118.2l4.6-19.9h8.9l4.6,19.9H78z"/>
		<path fill="#FFFFFF" d="M476.5,145.4h-5.3l-10.9-47.1h5.6c1.8,0,3.3-1.5,3.3-3.3s-1.5-3.3-3.3-3.3h-45.1c-1.8,0-3.3,1.5-3.3,3.3
			s1.5,3.3,3.3,3.3h4.4l-4.6,19.9h-6.7c-1.8,0-3.3,1.5-3.3,3.3c0,1.8,1.5,3.3,3.3,3.3h5.1l-4.8,20.6h-2.7c-1.8,0-3.3,1.5-3.3,3.3
			c0,1.8,1.5,3.3,3.3,3.3h5.3h0h0h12.6h0h0h6c1.8,0,3.3-1.5,3.3-3.3c0-1.8-1.5-3.3-3.3-3.3h-1.8l4.8-20.6h21.3l4.8,20.6h-3.8
			c-1.8,0-3.3,1.5-3.3,3.3c0,1.8,1.5,3.3,3.3,3.3h8h0h0h7.9c1.8,0,3.3-1.5,3.3-3.3C479.9,146.9,478.4,145.4,476.5,145.4z M421,145.4
			l11-47.1h5.8l-11,47.1H421z M439.9,118.2l4.6-19.9h8.9l4.6,19.9H439.9z"/>
		<path fill="#FFFFFF" d="M231.5,118.2h-6.6V98.2h2.3c1.8,0,3.3-1.5,3.3-3.3s-1.5-3.3-3.3-3.3h-23.9c-1.8,0-3.3,1.5-3.3,3.3
			s1.5,3.3,3.3,3.3h2.3v19.9h-6.6c-1.8,0-3.3,1.5-3.3,3.3c0,1.8,1.5,3.3,3.3,3.3h6.6v20.6h-2.2c-1.8,0-3.3,1.5-3.3,3.3
			c0,1.8,1.5,3.3,3.3,3.3h23.9c1.8,0,3.3-1.5,3.3-3.3c0-1.8-1.5-3.3-3.3-3.3h-2.4v-20.6h6.6c1.8,0,3.3-1.5,3.3-3.3
			C234.8,119.6,233.3,118.2,231.5,118.2z M212.2,145.4V98.2h6v47.1H212.2z"/>
		<path fill="#FFFFFF" d="M289.2,91.6h-23.9c-1.8,0-3.3,1.3-3.3,3.1v23.4h-6.6c-1.8,0-3.3,1.5-3.3,3.3c0,1.8,1.5,3.3,3.3,3.3h6.6
			v23.7c0,1.8,1.5,3.5,3.3,3.5h23.9c13.4,0,24.2-13.5,24.2-30.1C313.4,105.2,302.6,91.6,289.2,91.6z M274.6,145.4h-6V98.2h6V145.4z
			 M289.2,145.4h-8v-20.6h6c1.8,0,3.3-1.5,3.3-3.3c0-1.8-1.5-3.3-3.3-3.3h-6V98.2h8c9.7,0,17.6,10.6,17.6,23.6
			C306.8,134.8,298.9,145.4,289.2,145.4z"/>
		<path fill="#FFFFFF" d="M365.2,91.6h-23.9c-1.8,0-3.6,1.3-3.6,3.1v23.4h-6.4c-1.8,0-3.3,1.5-3.3,3.3c0,1.8,1.5,3.3,3.3,3.3h6.4
			v23.7c0,1.8,1.8,3.5,3.6,3.5h23.9c13.4,0,24.2-13.5,24.2-30.1C389.4,105.2,378.5,91.6,365.2,91.6z M350.3,145.4h-6V98.2h6V145.4z
			 M365.2,145.4h-8.2v-20.6h6.3c1.8,0,3.3-1.5,3.3-3.3c0-1.8-1.5-3.3-3.3-3.3h-6.3V98.2h8.2c9.7,0,17.6,10.6,17.6,23.6
			C382.8,134.8,374.9,145.4,365.2,145.4z"/>
		<path fill="#FFFFFF" d="M523.6,91.2c-4.5,0-8.7,1-12.5,2.7c-0.1,0-0.2,0.1-0.3,0.1c-10.2,4.8-17.3,15.2-17.3,27.3
			c0,12,7.1,22.5,17.3,27.3c0.1,0,0.2,0.1,0.3,0.1c3.8,1.7,8,2.7,12.5,2.7c16.6,0,30.1-13.5,30.1-30.1S540.2,91.2,523.6,91.2z
			 M500.1,121.3c0-7.4,3.5-14.1,8.9-18.4v36.7C503.5,135.4,500.1,128.8,500.1,121.3z M523.6,144.9c-2.8,0-5.5-0.5-8-1.4V99.2
			c2.5-0.9,5.2-1.4,8-1.4c13,0,23.5,10.5,23.5,23.5S536.6,144.9,523.6,144.9z"/>
		<path fill="#FFFFFF" d="M158.9,118c-7.6-2.5-14.1-4.6-14.1-11.5c0-6.5,7.3-8.9,12.2-8.9c5.1,0,11.4,1.7,11.6,8.2l0,0.1
			c0,0.4,0.2,0.7,0.3,1l0,0.1h0c0.6,1.3,1.6,1.8,2.9,1.8s2.4-0.4,2.9-1.8h0l0,0c0.1-0.3,0.2-0.6,0.3-0.9v-0.6v-3.8v-7.5
			c0-1.8-1.5-3.3-3.3-3.3s-3.3,1.5-3.3,3.3v0.1c-4.6-2.7-9.2-3.2-12.1-3.2c-9.2,0-19,5.6-19,16.2c0,11.6,11.5,15.2,20.7,18.1
			c1.1,0.3,2.1,0.6,3.1,1c5.7,1.9,8.2,4.6,8.2,8.9c0,4.8-4.7,9.9-13,9.9c-8.6,0-13.1-3.1-13.8-9.7v-1.3c0-1.8-1.5-3.3-3.3-3.3
			c-1.8,0-3.3,1.5-3.3,3.3v13.6c0,1.8,1.8,3.3,3.6,3.3c1.7,0,3.3-1.3,3.4-3c2.9,2.1,6.6,3.4,10.8,3.8c13.2,1,23-6.1,23-17.1
			C176.7,123.8,167.3,120.7,158.9,118z"/>
	</g>
</g>
</svg>
